<?xml version="1.0" encoding="utf-8"?>
<!-- Generator: Adobe Illustrator 22.1.0, SVG Export Plug-In . SVG Version: 6.00 Build 0)  -->
<svg version="1.1" id="Capa_1" xmlns="http://www.w3.org/2000/svg" xmlns:xlink="http://www.w3.org/1999/xlink" x="0px" y="0px"
	 viewBox="0 0 460 235.1" style="enable-background:new 0 0 460 235.1;" xml:space="preserve">
<style type="text/css">
	.st0{fill:#272727;}
</style>
<g>
	<g>
		<g>
			<path class="st0" d="M449.6,0H202.5c-7.2,0-14.4,5.8-16.1,13.1l-48.2,209c-1.7,7.2,2.8,13.1,10,13.1h247.1
				c7.2,0,14.4-5.8,16.1-13.1l48.2-209C461.3,5.8,456.8,0,449.6,0z M302,39.6l3.4-14.6c0.6-2.5,3.1-4.6,5.6-4.6h20.7
				c2.5,0,4.1,2,3.5,4.6l-3.4,14.6c-0.6,2.5-3.1,4.6-5.6,4.6h-20.7C303,44.1,301.4,42.1,302,39.6z M204.1,39.6l3.4-14.6
				c0.6-2.5,3.1-4.6,5.6-4.6h20.7c2.5,0,4.1,2,3.5,4.6l-3.4,14.6c-0.6,2.5-3.1,4.6-5.6,4.6h-20.7C205.1,44.1,203.5,42.1,204.1,39.6z
				 M198,195.6l-3.4,14.6c-0.6,2.5-3.1,4.6-5.6,4.6h-20.7c-2.5,0-4.1-2-3.5-4.6l3.4-14.6c0.6-2.5,3.1-4.6,5.6-4.6h20.7
				C197,191,198.5,193,198,195.6z M295.9,195.6l-3.4,14.6c-0.6,2.5-3.1,4.6-5.6,4.6h-20.7c-2.5,0-4.1-2-3.5-4.6l3.4-14.6
				c0.6-2.5,3.1-4.6,5.6-4.6h20.7C294.9,191,296.5,193,295.9,195.6z M393.8,195.6l-3.4,14.6c-0.6,2.5-3.1,4.6-5.6,4.6h-20.7
				c-2.5,0-4.1-2-3.5-4.6l3.4-14.6c0.6-2.5,3.1-4.6,5.6-4.6h20.7C392.8,191,394.4,193,393.8,195.6z M392.4,179.7H176.9l28.6-124.2
				H421L392.4,179.7z M433.1,25l-3.4,14.6c-0.6,2.5-3.1,4.6-5.6,4.6h-20.7c-2.5,0-4.1-2-3.5-4.6l3.4-14.6c0.6-2.5,3.1-4.6,5.6-4.6
				h20.7C432.1,20.4,433.7,22.5,433.1,25z"/>
			<path class="st0" d="M268.6,153.3c1,0.6,2.2,0.9,3.5,0.9c1.4,0,2.9-0.4,4.4-1.2l52.4-29c2.5-1.4,4.4-3.8,5-6.4
				c0.6-2.6-0.2-5-2.1-6.4l-39-29c-2-1.5-4.9-1.6-7.7-0.2c-2.7,1.3-4.9,3.9-5.5,6.7l-13.4,58.1C265.5,149.4,266.4,152,268.6,153.3z"
				/>
			<path class="st0" d="M39,57.1h107c5.7,0,10.3-4.6,10.3-10.3s-4.6-10.3-10.3-10.3H39c-5.7,0-10.3,4.6-10.3,10.3
				C28.7,52.5,33.3,57.1,39,57.1z"/>
			<path class="st0" d="M117.3,129.9h-107c-5.7,0-10.3,4.6-10.3,10.3c0,5.7,4.6,10.3,10.3,10.3h107c5.7,0,10.3-4.6,10.3-10.3
				C127.6,134.5,123,129.9,117.3,129.9z"/>
			<path class="st0" d="M141.9,92.9c0-5.7-4.6-10.3-10.3-10.3h-64c-5.7,0-10.3,4.6-10.3,10.3s4.6,10.3,10.3,10.3h64
				C137.3,103.2,141.9,98.6,141.9,92.9z"/>
			<path class="st0" d="M102.9,176H68.8c-5.7,0-10.3,4.6-10.3,10.3c0,5.7,4.6,10.3,10.3,10.3h34.2c5.7,0,10.3-4.6,10.3-10.3
				C113.2,180.6,108.6,176,102.9,176z"/>
		</g>
	</g>
</g>
</svg>
