<?xml version="1.0" encoding="utf-8"?>
<!-- Generator: Adobe Illustrator 22.1.0, SVG Export Plug-In . SVG Version: 6.00 Build 0)  -->
<svg version="1.1" id="Capa_1" xmlns="http://www.w3.org/2000/svg" xmlns:xlink="http://www.w3.org/1999/xlink" x="0px" y="0px"
	 viewBox="0 0 410 325.8" style="enable-background:new 0 0 410 325.8;" xml:space="preserve">
<style type="text/css">
	.st0{fill:#272727;}
</style>
<g>
	<g>
		<path class="st0" d="M388.7,235.9h-11.9v-46.2c0-18.2-14.8-33.1-33.1-33.1h-127v-49.9h59.8c9.6,0,17.3-7.7,17.3-17.3V17.3
			c0-9.6-7.7-17.3-17.3-17.3H133.4c-9.6,0-17.3,7.7-17.3,17.3v72.1c0,9.6,7.7,17.3,17.3,17.3h59.8v49.9h-127
			c-18.2,0-33.1,14.8-33.1,33.1v46.2H21.3C9.6,235.9,0,245.5,0,257.3v47.2c0,11.8,9.6,21.3,21.3,21.3h47.2
			c11.8,0,21.3-9.6,21.3-21.3v-47.2c0-11.8-9.6-21.3-21.3-21.3H56.7v-46.2c0-5.3,4.3-9.6,9.6-9.6h127v55.8h-11.9
			c-11.8,0-21.3,9.6-21.3,21.3v47.2c0,11.8,9.6,21.3,21.3,21.3h47.2c11.8,0,21.3-9.6,21.3-21.3v-47.2c0-11.8-9.6-21.3-21.3-21.3
			h-11.9v-55.8h127c5.3,0,9.6,4.3,9.6,9.6v46.2h-11.9c-11.8,0-21.3,9.6-21.3,21.3v47.2c0,11.8,9.6,21.3,21.3,21.3h47.2
			c11.8,0,21.3-9.6,21.3-21.3v-47.2C410,245.5,400.4,235.9,388.7,235.9z"/>
	</g>
</g>
</svg>
