<?xml version="1.0" encoding="utf-8"?>
<!-- Generator: Adobe Illustrator 22.1.0, SVG Export Plug-In . SVG Version: 6.00 Build 0)  -->
<svg version="1.1" id="Capa_1" xmlns="http://www.w3.org/2000/svg" xmlns:xlink="http://www.w3.org/1999/xlink" x="0px" y="0px"
	 viewBox="0 0 487.8 487.8" style="enable-background:new 0 0 487.8 487.8;" xml:space="preserve">
<style type="text/css">
	.st0{fill:#272727;}
</style>
<g>
	<path class="st0" d="M480.9,160.8l-24.3-24.3c-4.1-4.1-9.6-6.4-15.4-6.4s-11.3,2.3-15.4,6.4l-3.3,3.3
		c-32.1-21.4-69.4-32.7-108.5-32.8c-0.1,0-0.2,0-0.4,0c-24.3,0-47.8,4.3-69.9,12.7l42.6-42.6c5.4,2.6,11.3,3.9,17.4,3.9
		c10.8,0,21-4.2,28.6-11.9c7.6-7.6,11.9-17.8,11.9-28.6s-4.2-21-11.9-28.6S314.5,0,303.7,0s-21,4.2-28.6,11.9s-11.9,17.8-11.9,28.6
		c0,6.1,1.4,12.1,3.9,17.4l-76.7,76.7l-2.6-2.6c-4.1-4.1-9.6-6.4-15.4-6.4s-11.3,2.3-15.4,6.4l-24.6,24.5c-4.1,4.1-6.4,9.6-6.4,15.4
		s2.3,11.3,6.4,15.4l2.6,2.6l-76.7,76.7c-5.4-2.6-11.3-3.9-17.4-3.9c-10.8,0-21,4.2-28.6,11.9c-15.8,15.8-15.8,41.5,0,57.2
		c7.6,7.6,17.8,11.9,28.6,11.9s21-4.2,28.6-11.9c12.4-12.4,15.1-31,7.9-46l42.6-42.6c-8.4,22.2-12.8,45.9-12.7,70.3
		c0.1,39.1,11.4,76.4,32.8,108.5l-4.1,4.1c-8.5,8.5-8.5,22.4,0,30.9l24.4,24.4c4.1,4.1,9.6,6.4,15.4,6.4c5.8,0,11.3-2.3,15.4-6.4
		l24.4-24.4c8.5-8.5,8.5-22.4,0-30.9l-24.4-24.4c-4.1-4.1-9.6-6.4-15.4-6.4c-5.8,0-11.3,2.3-15.4,6.4l-0.7,0.7
		c-35.1-56.9-33.6-130.5,4.7-185.9c2.5,1,5.1,1.5,7.9,1.5c5.8,0,11.3-2.3,15.4-6.4l24.4-24.4c6.3-6.3,7.9-15.5,4.9-23.3
		c55.4-38.3,129-39.9,185.9-4.7l-1.5,1.5c-8.5,8.5-8.5,22.4,0,30.9l24.4,24.4c4.1,4.1,9.6,6.4,15.4,6.4s11.3-2.3,15.4-6.4l24.4-24.4
		C489.5,183.2,489.5,169.4,480.9,160.8z M192.8,441.7l-17.1,17.1l-17.1-17.1l17.1-17.1L192.8,441.7z M294,31.1
		c2.5-2.5,5.9-3.9,9.5-3.9s7,1.4,9.5,3.9s3.9,5.9,3.9,9.5s-1.4,7-3.9,9.5s-5.9,3.9-9.5,3.9s-7-1.4-9.5-3.9l0,0l0,0
		c-2.5-2.5-3.9-5.9-3.9-9.5S291.5,33.7,294,31.1z M50.4,312.8c-2.5,2.5-5.9,3.9-9.5,3.9s-7-1.4-9.5-3.9c-5.3-5.3-5.3-13.8,0-19
		c2.5-2.5,5.9-3.9,9.5-3.9s7,1.4,9.5,3.9C55.7,299,55.7,307.6,50.4,312.8z M172.2,189l-17.1-17.1l17.1-17.1l8.5,8.5l0,0l0,0l8.5,8.5
		L172.2,189z M441.1,193.3L424,176.2l17.1-17.1l17.1,17.1L441.1,193.3z"/>
</g>
</svg>
